<?xml version="1.0" encoding="UTF-8" standalone="no"?>
<!-- Created with Inkscape (http://www.inkscape.org/) -->

<svg
   xmlns:dc="http://purl.org/dc/elements/1.1/"
   xmlns:cc="http://creativecommons.org/ns#"
   xmlns:rdf="http://www.w3.org/1999/02/22-rdf-syntax-ns#"
   xmlns:svg="http://www.w3.org/2000/svg"
   xmlns="http://www.w3.org/2000/svg"
   xmlns:xlink="http://www.w3.org/1999/xlink"
   xmlns:sodipodi="http://sodipodi.sourceforge.net/DTD/sodipodi-0.dtd"
   xmlns:inkscape="http://www.inkscape.org/namespaces/inkscape"
   width="120"
   height="120"
   id="svg2"
   version="1.1"
   inkscape:version="0.47 r22583"
   sodipodi:docname="sprites.svg"
   inkscape:export-filename="/home/tim/Desktop/node-camp/examples/conquest/web/sprites.png"
   inkscape:export-xdpi="90"
   inkscape:export-ydpi="90">
  <defs
     id="defs4">
    <inkscape:perspective
       sodipodi:type="inkscape:persp3d"
       inkscape:vp_x="0 : 526.18109 : 1"
       inkscape:vp_y="0 : 1000 : 0"
       inkscape:vp_z="744.09448 : 526.18109 : 1"
       inkscape:persp3d-origin="372.04724 : 350.78739 : 1"
       id="perspective10" />
    <inkscape:perspective
       id="perspective2824"
       inkscape:persp3d-origin="0.5 : 0.33333333 : 1"
       inkscape:vp_z="1 : 0.5 : 1"
       inkscape:vp_y="0 : 1000 : 0"
       inkscape:vp_x="0 : 0.5 : 1"
       sodipodi:type="inkscape:persp3d" />
    <inkscape:perspective
       id="perspective2838"
       inkscape:persp3d-origin="0.5 : 0.33333333 : 1"
       inkscape:vp_z="1 : 0.5 : 1"
       inkscape:vp_y="0 : 1000 : 0"
       inkscape:vp_x="0 : 0.5 : 1"
       sodipodi:type="inkscape:persp3d" />
    <inkscape:perspective
       id="perspective2875"
       inkscape:persp3d-origin="0.5 : 0.33333333 : 1"
       inkscape:vp_z="1 : 0.5 : 1"
       inkscape:vp_y="0 : 1000 : 0"
       inkscape:vp_x="0 : 0.5 : 1"
       sodipodi:type="inkscape:persp3d" />
    <inkscape:perspective
       id="perspective2897"
       inkscape:persp3d-origin="0.5 : 0.33333333 : 1"
       inkscape:vp_z="1 : 0.5 : 1"
       inkscape:vp_y="0 : 1000 : 0"
       inkscape:vp_x="0 : 0.5 : 1"
       sodipodi:type="inkscape:persp3d" />
    <filter
       id="filter3863"
       inkscape:label="Drop shadow"
       width="1.5"
       height="1.5"
       x="-0.25"
       y="-0.25"
       color-interpolation-filters="sRGB">
      <feGaussianBlur
         id="feGaussianBlur3865"
         in="SourceAlpha"
         stdDeviation="3.000000"
         result="blur" />
      <feColorMatrix
         id="feColorMatrix3867"
         result="bluralpha"
         type="matrix"
         values="-1 0 0 0 1 0 -1 0 0 1 0 0 -1 0 1 0 0 0 1.000000 0 " />
      <feOffset
         id="feOffset3869"
         in="bluralpha"
         dx="0.000000"
         dy="0.000000"
         result="offsetBlur" />
      <feMerge
         id="feMerge3871">
        <feMergeNode
           id="feMergeNode3873"
           in="offsetBlur" />
        <feMergeNode
           id="feMergeNode3875"
           in="SourceGraphic" />
      </feMerge>
    </filter>
    <filter
       id="filter3915"
       inkscape:label="Drop shadow"
       width="1.5"
       height="1.5"
       x="-0.25"
       y="-0.25"
       color-interpolation-filters="sRGB">
      <feGaussianBlur
         id="feGaussianBlur3917"
         in="SourceAlpha"
         stdDeviation="3.000000"
         result="blur" />
      <feColorMatrix
         id="feColorMatrix3919"
         result="bluralpha"
         type="matrix"
         values="-1 0 0 0 1 0 -1 0 0 1 0 0 -1 0 1 0 0 0 1.000000 0 " />
      <feOffset
         id="feOffset3921"
         in="bluralpha"
         dx="0.000000"
         dy="0.000000"
         result="offsetBlur" />
      <feMerge
         id="feMerge3923">
        <feMergeNode
           id="feMergeNode3925"
           in="offsetBlur" />
        <feMergeNode
           id="feMergeNode3927"
           in="SourceGraphic" />
      </feMerge>
    </filter>
    <filter
       id="filter5674"
       inkscape:label="Chalk and sponge"
       inkscape:menu="Distort"
       inkscape:menu-tooltip="Low turbulence gives sponge look and high turbulence chalk"
       width="1.6"
       height="2"
       y="-0.5"
       x="-0.30000001"
       color-interpolation-filters="sRGB">
      <feTurbulence
         id="feTurbulence5676"
         baseFrequency="0.4"
         type="fractalNoise"
         seed="0"
         numOctaves="5"
         result="result1" />
      <feOffset
         id="feOffset5678"
         dx="-5"
         dy="-5"
         result="result2" />
      <feDisplacementMap
         id="feDisplacementMap5680"
         in2="result1"
         xChannelSelector="R"
         yChannelSelector="G"
         scale="30"
         in="SourceGraphic" />
    </filter>
    <filter
       id="filter5682"
       inkscape:label="Chalk and sponge"
       inkscape:menu="Distort"
       inkscape:menu-tooltip="Low turbulence gives sponge look and high turbulence chalk"
       width="1.6"
       height="2"
       y="-0.5"
       x="-0.30000001"
       color-interpolation-filters="sRGB">
      <feTurbulence
         id="feTurbulence5684"
         baseFrequency="0.4"
         type="fractalNoise"
         seed="0"
         numOctaves="5"
         result="result1" />
      <feOffset
         id="feOffset5686"
         dx="-5"
         dy="-5"
         result="result2" />
      <feDisplacementMap
         id="feDisplacementMap5688"
         in2="result1"
         xChannelSelector="R"
         yChannelSelector="G"
         scale="30"
         in="SourceGraphic" />
    </filter>
    <filter
       id="filter5690"
       inkscape:label="Chalk and sponge"
       inkscape:menu="Distort"
       inkscape:menu-tooltip="Low turbulence gives sponge look and high turbulence chalk"
       width="1.6"
       height="2"
       y="-0.5"
       x="-0.30000001"
       color-interpolation-filters="sRGB">
      <feTurbulence
         id="feTurbulence5692"
         baseFrequency="0.4"
         type="fractalNoise"
         seed="0"
         numOctaves="5"
         result="result1" />
      <feOffset
         id="feOffset5694"
         dx="-5"
         dy="-5"
         result="result2" />
      <feDisplacementMap
         id="feDisplacementMap5696"
         in2="result1"
         xChannelSelector="R"
         yChannelSelector="G"
         scale="30"
         in="SourceGraphic" />
    </filter>
    <filter
       id="filter5698"
       inkscape:label="Chalk and sponge"
       inkscape:menu="Distort"
       inkscape:menu-tooltip="Low turbulence gives sponge look and high turbulence chalk"
       width="1.6"
       height="2"
       y="-0.5"
       x="-0.30000001"
       color-interpolation-filters="sRGB">
      <feTurbulence
         id="feTurbulence5700"
         baseFrequency="0.4"
         type="fractalNoise"
         seed="0"
         numOctaves="5"
         result="result1" />
      <feOffset
         id="feOffset5702"
         dx="-5"
         dy="-5"
         result="result2" />
      <feDisplacementMap
         id="feDisplacementMap5704"
         in2="result1"
         xChannelSelector="R"
         yChannelSelector="G"
         scale="30"
         in="SourceGraphic" />
    </filter>
    <filter
       id="filter5706"
       inkscape:label="Chalk and sponge"
       inkscape:menu="Distort"
       inkscape:menu-tooltip="Low turbulence gives sponge look and high turbulence chalk"
       width="1.6"
       height="2"
       y="-0.5"
       x="-0.30000001"
       color-interpolation-filters="sRGB">
      <feTurbulence
         id="feTurbulence5708"
         baseFrequency="0.34499999999999997"
         type="fractalNoise"
         seed="0"
         numOctaves="1"
         result="result1" />
      <feOffset
         id="feOffset5710"
         dx="-5"
         dy="-5"
         result="result2" />
      <feDisplacementMap
         id="feDisplacementMap5712"
         in2="result1"
         xChannelSelector="R"
         yChannelSelector="G"
         scale="30"
         in="SourceGraphic" />
    </filter>
    <filter
       id="filter5714"
       inkscape:label="Chalk and sponge"
       inkscape:menu="Distort"
       inkscape:menu-tooltip="Low turbulence gives sponge look and high turbulence chalk"
       width="1.6"
       height="2"
       y="-0.5"
       x="-0.30000001"
       color-interpolation-filters="sRGB">
      <feTurbulence
         id="feTurbulence5716"
         baseFrequency="0.4"
         type="fractalNoise"
         seed="0"
         numOctaves="5"
         result="result1" />
      <feOffset
         id="feOffset5718"
         dx="-5"
         dy="-5"
         result="result2" />
      <feDisplacementMap
         id="feDisplacementMap5720"
         in2="result1"
         xChannelSelector="R"
         yChannelSelector="G"
         scale="30"
         in="SourceGraphic" />
    </filter>
    <filter
       id="filter5722"
       inkscape:label="Chalk and sponge"
       inkscape:menu="Distort"
       inkscape:menu-tooltip="Low turbulence gives sponge look and high turbulence chalk"
       width="1.6"
       height="2"
       y="-0.5"
       x="-0.30000001"
       color-interpolation-filters="sRGB">
      <feTurbulence
         id="feTurbulence5724"
         baseFrequency="0.4"
         type="fractalNoise"
         seed="0"
         numOctaves="5"
         result="result1" />
      <feOffset
         id="feOffset5726"
         dx="-5"
         dy="-5"
         result="result2" />
      <feDisplacementMap
         id="feDisplacementMap5728"
         in2="result1"
         xChannelSelector="R"
         yChannelSelector="G"
         scale="30"
         in="SourceGraphic" />
    </filter>
    <filter
       id="filter5730"
       inkscape:label="Chalk and sponge"
       inkscape:menu="Distort"
       inkscape:menu-tooltip="Low turbulence gives sponge look and high turbulence chalk"
       width="1.6"
       height="2"
       y="-0.5"
       x="-0.30000001"
       color-interpolation-filters="sRGB">
      <feTurbulence
         id="feTurbulence5732"
         baseFrequency="0.4"
         type="fractalNoise"
         seed="0"
         numOctaves="5"
         result="result1" />
      <feOffset
         id="feOffset5734"
         dx="-5"
         dy="-5"
         result="result2" />
      <feDisplacementMap
         id="feDisplacementMap5736"
         in2="result1"
         xChannelSelector="R"
         yChannelSelector="G"
         scale="30"
         in="SourceGraphic" />
    </filter>
    <inkscape:perspective
       id="perspective6189"
       inkscape:persp3d-origin="0.5 : 0.33333333 : 1"
       inkscape:vp_z="1 : 0.5 : 1"
       inkscape:vp_y="0 : 1000 : 0"
       inkscape:vp_x="0 : 0.5 : 1"
       sodipodi:type="inkscape:persp3d" />
    <pattern
       patternUnits="userSpaceOnUse"
       width="1008"
       height="720"
       patternTransform="translate(-319,-515.04372)"
       id="pattern6464">
      <image
         style="stroke-width:3;stroke-miterlimit:4;stroke-dasharray:none"
         xlink:href="/home/tim/inkscape_pasted_image_20101125_121524.png"
         width="1008"
         height="720"
         id="image6191"
         x="0"
         y="0"
         sodipodi:absref="/home/tim/inkscape_pasted_image_20101125_121524.png" />
    </pattern>
  </defs>
  <sodipodi:namedview
     id="base"
     pagecolor="#ffffff"
     bordercolor="#666666"
     borderopacity="1.0"
     inkscape:pageopacity="0.0"
     inkscape:pageshadow="2"
     inkscape:zoom="2"
     inkscape:cx="-188.69031"
     inkscape:cy="132.08531"
     inkscape:document-units="px"
     inkscape:current-layer="layer2"
     showgrid="true"
     inkscape:window-width="1600"
     inkscape:window-height="851"
     inkscape:window-x="0"
     inkscape:window-y="24"
     inkscape:window-maximized="1">
    <inkscape:grid
       type="xygrid"
       id="grid2846"
       empspacing="15"
       visible="true"
       enabled="true"
       snapvisiblegridlinesonly="true"
       spacingx="1px"
       spacingy="1px" />
  </sodipodi:namedview>
  <metadata
     id="metadata7">
    <rdf:RDF>
      <cc:Work
         rdf:about="">
        <dc:format>image/svg+xml</dc:format>
        <dc:type
           rdf:resource="http://purl.org/dc/dcmitype/StillImage" />
        <dc:title />
      </cc:Work>
    </rdf:RDF>
  </metadata>
  <g
     inkscape:groupmode="layer"
     id="layer2"
     inkscape:label="Layer"
     transform="translate(0,60)">
    <rect
       style="fill:#729fcf;fill-opacity:1;stroke:none"
       id="rect6371"
       width="1003.1069"
       height="1041"
       x="-1045.1069"
       y="-564" />
    <rect
       style="fill:url(#pattern6464);stroke:none"
       width="184.9277"
       height="284.42221"
       x="-319"
       y="-252"
       id="rect6467" />
    <rect
       style="fill:#ef2929;fill-opacity:1;stroke:none"
       id="rect6274"
       width="58"
       height="58"
       x="-539"
       y="-209"
       rx="10"
       ry="10" />
    <rect
       ry="10"
       rx="10"
       y="-179"
       x="-509"
       height="58"
       width="88"
       id="rect6276"
       style="fill:#ef2929;fill-opacity:1;stroke:none" />
    <rect
       style="fill:#ef2929;fill-opacity:1;stroke:none"
       id="rect6278"
       width="58"
       height="58"
       x="-449"
       y="-209"
       rx="10"
       ry="10" />
    <rect
       style="fill:#8ae234;fill-opacity:1;stroke:none"
       id="rect6280"
       width="28"
       height="178"
       x="-539"
       y="-149"
       rx="10"
       ry="10" />
    <rect
       style="fill:#8ae234;fill-opacity:1;stroke:none"
       id="rect6282"
       width="58"
       height="118"
       x="-539"
       y="-119"
       rx="10"
       ry="10" />
    <rect
       style="fill:#8ae234;fill-opacity:1;stroke:none"
       id="rect6284"
       width="88"
       height="58"
       x="-479"
       y="-59"
       rx="10"
       ry="10" />
    <rect
       style="fill:#8ae234;fill-opacity:1;stroke:none"
       id="rect6286"
       width="58"
       height="59"
       x="-449"
       y="-30"
       rx="10"
       ry="10" />
    <rect
       ry="10"
       rx="10"
       y="1"
       x="-419"
       height="58"
       width="58"
       id="rect6312"
       style="fill:#8ae234;fill-opacity:1;stroke:none" />
  </g>
  <g
     inkscape:label="Layer 1"
     inkscape:groupmode="layer"
     id="layer1"
     transform="translate(0,-932.36218)">
    <g
       id="g6224">
      <rect
         y="992.36218"
         x="60"
         height="30"
         width="30"
         id="rect6212"
         style="fill:#d3d7cf;fill-opacity:0;stroke:none" />
      <path
         id="path3967"
         d="m 72,995.36216 0,3 6,0 0,-3 -6,0 z m 6,3 0,3.00004 -6,0 0,-3.00004 -6,0 0,9.00004 6,0 0,9 6,0 0,-9 6,0 0,-9.00004 -6,0 z"
         style="fill:#000000;fill-opacity:1;stroke:none" />
    </g>
    <g
       id="g6236">
      <rect
         y="992.36218"
         x="0"
         height="30"
         width="30"
         id="rect6200"
         style="fill:#d3d7cf;fill-opacity:0;stroke:none" />
      <path
         id="path3963"
         d="m 3.000012,998.36218 0,18.00002 23.999984,0 0,-18.00002 -23.999984,0 z m 5.999996,3.00002 11.999992,0 0,12 -11.999992,0 0,-12 z"
         style="fill:#000000;fill-opacity:1;stroke:none" />
    </g>
    <g
       id="g6232">
      <rect
         style="fill:#d3d7cf;fill-opacity:0;stroke:none"
         id="rect6210"
         width="30"
         height="30"
         x="30"
         y="992.36218" />
      <path
         id="path3961"
         d="m 36.000008,998.36218 0,3.00002 5.999996,0 0,12 -5.999996,0 0,3 17.999988,0 0,-3 -5.999996,0 0,-12 5.999996,0 0,-3.00002 -17.999988,0 z"
         style="fill:#000000;fill-opacity:1;stroke:none" />
    </g>
    <g
       id="g6244">
      <rect
         style="fill:#d3d7cf;fill-opacity:0;stroke:none"
         id="rect6214"
         width="30"
         height="30"
         x="90"
         y="992.36218" />
      <path
         id="path3959"
         d="m 93,998.36218 0,3.00002 6,0 0,-3.00002 -6,0 z m 17.99999,0 0,3.00002 5.99999,0 0,-3.00002 -5.99999,0 z M 99,1004.3622 l 0,6 11.99999,0 0,-6 -11.99999,0 z m -6,9 0,3 6,0 0,-3 -6,0 z m 17.99999,0 0,3 5.99999,0 0,-3 -5.99999,0 z"
         style="fill:#000000;fill-opacity:1;stroke:none" />
    </g>
    <g
       id="g6240"
       transform="translate(-540,-240)">
      <rect
         style="fill:#d3d7cf;fill-opacity:0;stroke:none"
         id="rect6222"
         width="30"
         height="30"
         x="0"
         y="1022.3622" />
      <path
         id="path3947"
         d="m 18,1028.3622 -6.01875,0.094 0.01875,2.9063 6,0 0,-3 z m -6,3 -6,0 0,15 6,0 0,-3 6,0 0,-3 6,0 0,-3 -6,0 0,-3 -6,0 0,-3 z m 0,15 0,3 6,0 0,-3 -6,0 z"
         style="fill:#000000;fill-opacity:1;stroke:none" />
    </g>
    <g
       id="g6228">
      <rect
         y="1022.3622"
         x="30"
         height="30"
         width="30"
         id="rect6220"
         style="fill:#d3d7cf;fill-opacity:0;stroke:none" />
      <path
         id="path3941"
         d="m 36,1028.3622 0,6 6,0 0,-6 -6,0 z m 12,3 0,6 6,0 0,-6 -6,0 z m -6,9 0,6 6,0 0,-6 -6,0 z"
         style="fill:#000000;fill-opacity:1;stroke:none" />
    </g>
    <g
       id="g6252">
      <rect
         style="fill:#d3d7cf;fill-opacity:0;stroke:none"
         id="rect6218"
         width="30"
         height="30"
         x="60"
         y="1022.3622" />
      <path
         id="path3939"
         d="m 63,1028.3622 0,6 6,0 0,12 6,0 0,-6 6,0 0,6 6,0 0,-12 -12,0 0,-6 -12,0 z"
         style="fill:#000000;fill-opacity:1;stroke:none" />
    </g>
    <g
       id="g6248">
      <rect
         y="1022.3622"
         x="90"
         height="30"
         width="30"
         id="rect6216"
         style="fill:#d3d7cf;fill-opacity:0;stroke:none" />
      <path
         id="path3935"
         d="m 96,1034.3622 0,12 6,0 0,-12 -6,0 z m 12,0 0,12 6,0 0,-12 -6,0 z"
         style="fill:#000000;fill-opacity:1;stroke:none" />
    </g>
    <g
       transform="translate(0,-2.6171874e-6)"
       id="g6256">
      <rect
         y="1022.3622"
         x="0"
         height="30"
         width="30"
         id="rect6258"
         style="fill:#d3d7cf;fill-opacity:0;stroke:none" />
      <path
         style="fill:#000000;fill-opacity:1;stroke:none"
         d="m 18,1028.3622 -6.01875,0.094 0.01875,2.9063 6,0 0,-3 z m -6,3 -6,0 0,15 6,0 0,-3 6,0 0,-3 6,0 0,-3 -6,0 0,-3 -6,0 0,-3 z m 0,15 0,3 6,0 0,-3 -6,0 z"
         id="path6260" />
    </g>
    <g
       id="g6262"
       transform="translate(-600,-210)">
      <rect
         style="fill:#d3d7cf;fill-opacity:0;stroke:none"
         id="rect6264"
         width="30"
         height="30"
         x="90"
         y="1022.3622" />
      <path
         style="fill:#000000;fill-opacity:1;stroke:none"
         d="m 96,1034.3622 0,12 6,0 0,-12 -6,0 z m 12,0 0,12 6,0 0,-12 -6,0 z"
         id="path6266" />
    </g>
    <g
       id="g6268"
       transform="translate(-510,-210)">
      <rect
         y="1022.3622"
         x="60"
         height="30"
         width="30"
         id="rect6270"
         style="fill:#d3d7cf;fill-opacity:0;stroke:none" />
      <path
         style="fill:#000000;fill-opacity:1;stroke:none"
         d="m 63,1028.3622 0,6 6,0 0,12 6,0 0,-6 6,0 0,6 6,0 0,-12 -12,0 0,-6 -12,0 z"
         id="path6272" />
    </g>
    <g
       id="g6288"
       transform="translate(-570,-89.99998)">
      <rect
         style="fill:#d3d7cf;fill-opacity:0;stroke:none"
         id="rect6290"
         width="30"
         height="30"
         x="60"
         y="992.36218" />
      <path
         style="fill:#000000;fill-opacity:1;stroke:none"
         d="m 72,995.36216 0,3 6,0 0,-3 -6,0 z m 6,3 0,3.00004 -6,0 0,-3.00004 -6,0 0,9.00004 6,0 0,9 6,0 0,-9 6,0 0,-9.00004 -6,0 z"
         id="path6292" />
    </g>
    <g
       transform="translate(-570,-60)"
       id="g6294">
      <rect
         style="fill:#d3d7cf;fill-opacity:0;stroke:none"
         id="rect6296"
         width="30"
         height="30"
         x="60"
         y="1022.3622" />
      <path
         id="path6298"
         d="m 63,1028.3622 0,6 6,0 0,12 6,0 0,-6 6,0 0,6 6,0 0,-12 -12,0 0,-6 -12,0 z"
         style="fill:#000000;fill-opacity:1;stroke:none" />
    </g>
    <g
       id="g6300"
       transform="translate(-480,-30)">
      <rect
         y="1022.3622"
         x="60"
         height="30"
         width="30"
         id="rect6302"
         style="fill:#d3d7cf;fill-opacity:0;stroke:none" />
      <path
         style="fill:#000000;fill-opacity:1;stroke:none"
         d="m 63,1028.3622 0,6 6,0 0,12 6,0 0,-6 6,0 0,6 6,0 0,-12 -12,0 0,-6 -12,0 z"
         id="path6304" />
    </g>
    <g
       transform="translate(-510,-29.99998)"
       id="g6306">
      <rect
         y="992.36218"
         x="60"
         height="30"
         width="30"
         id="rect6308"
         style="fill:#d3d7cf;fill-opacity:0;stroke:none" />
      <path
         id="path6310"
         d="m 72,995.36216 0,3 6,0 0,-3 -6,0 z m 6,3 0,3.00004 -6,0 0,-3.00004 -6,0 0,9.00004 6,0 0,9 6,0 0,-9 6,0 0,-9.00004 -6,0 z"
         style="fill:#000000;fill-opacity:1;stroke:none" />
    </g>
    <g
       id="g6325"
       transform="translate(0,-90)">
      <path
         transform="translate(0,992.36218)"
         sodipodi:nodetypes="cccccccccc"
         id="path6314"
         d="m 21,75 0,-6 -6,0 0,9 -6,0 0,3 -6,0 0,3 24,0 0,-9"
         style="fill:#edd400;stroke:none" />
      <rect
         style="fill:#d3d7cf;fill-opacity:0;stroke:none"
         id="rect6318"
         width="30"
         height="30"
         x="0"
         y="1052.3622" />
    </g>
    <g
       id="g6329"
       transform="translate(30,-90)">
      <path
         style="fill:#73d216;stroke:none"
         d="m 21,75 0,-6 -6,0 0,9 -6,0 0,3 -6,0 0,3 24,0 0,-9"
         id="path6331"
         sodipodi:nodetypes="cccccccccc"
         transform="translate(0,992.36218)" />
      <rect
         y="1052.3622"
         x="0"
         height="30"
         width="30"
         id="rect6333"
         style="fill:#d3d7cf;fill-opacity:0;stroke:none" />
    </g>
    <g
       transform="translate(60,-90)"
       id="g6335">
      <path
         transform="translate(0,992.36218)"
         sodipodi:nodetypes="cccccccccc"
         id="path6337"
         d="m 21,75 0,-6 -6,0 0,9 -6,0 0,3 -6,0 0,3 24,0 0,-9"
         style="fill:#f57900;stroke:none" />
      <rect
         style="fill:#d3d7cf;fill-opacity:0;stroke:none"
         id="rect6339"
         width="30"
         height="30"
         x="0"
         y="1052.3622" />
    </g>
    <g
       id="g6341"
       transform="translate(90,-90)">
      <path
         style="fill:#3465a4;stroke:none"
         d="m 21,75 0,-6 -6,0 0,9 -6,0 0,3 -6,0 0,3 24,0 0,-9"
         id="path6343"
         sodipodi:nodetypes="cccccccccc"
         transform="translate(0,992.36218)" />
      <rect
         y="1052.3622"
         x="0"
         height="30"
         width="30"
         id="rect6345"
         style="fill:#d3d7cf;fill-opacity:0;stroke:none" />
    </g>
    <g
       transform="translate(30,-120)"
       id="g6347">
      <path
         transform="translate(0,992.36218)"
         sodipodi:nodetypes="cccccccccc"
         id="path6349"
         d="m 21,75 0,-6 -6,0 0,9 -6,0 0,3 -6,0 0,3 24,0 0,-9"
         style="fill:#75507b;stroke:none" />
      <rect
         style="fill:#d3d7cf;fill-opacity:0;stroke:none"
         id="rect6351"
         width="30"
         height="30"
         x="0"
         y="1052.3622" />
    </g>
    <g
       id="g6353"
       transform="translate(60,-120)">
      <path
         style="fill:#c17d11;stroke:none"
         d="m 21,75 0,-6 -6,0 0,9 -6,0 0,3 -6,0 0,3 24,0 0,-9"
         id="path6355"
         sodipodi:nodetypes="cccccccccc"
         transform="translate(0,992.36218)" />
      <rect
         y="1052.3622"
         x="0"
         height="30"
         width="30"
         id="rect6357"
         style="fill:#d3d7cf;fill-opacity:0;stroke:none" />
    </g>
    <g
       transform="translate(90,-120)"
       id="g6359"
       style="fill:#cc0000">
      <path
         transform="translate(0,992.36218)"
         sodipodi:nodetypes="cccccccccc"
         id="path6361"
         d="m 21,75 0,-6 -6,0 0,9 -6,0 0,3 -6,0 0,3 24,0 0,-9"
         style="fill:#cc0000;stroke:none" />
      <rect
         style="fill:#cc0000;fill-opacity:0;stroke:none"
         id="rect6363"
         width="30"
         height="30"
         x="0"
         y="1052.3622" />
    </g>
    <g
       transform="translate(-510,-300)"
       id="g6365">
      <path
         transform="translate(0,992.36218)"
         sodipodi:nodetypes="cccccccccc"
         id="path6367"
         d="m 21,75 0,-6 -6,0 0,9 -6,0 0,3 -6,0 0,3 24,0 0,-9"
         style="fill:#cc0000;stroke:none" />
      <rect
         style="fill:#d3d7cf;fill-opacity:0;stroke:none"
         id="rect6369"
         width="30"
         height="30"
         x="0"
         y="1052.3622" />
    </g>
  </g>
</svg>
